<svg width="107" height="107" viewBox="0 0 107 107" fill="none" xmlns="http://www.w3.org/2000/svg">
<g clip-path="url(#clip0_304_15190)">
<path d="M0 53.3319V106.491H53.1593H106.319V53.3319V0.172531H53.1593H0V53.3319ZM67.8612 32.4502C69.6055 32.932 70.6022 33.6961 71.4827 35.2577C71.8814 35.9388 71.9312 36.2046 71.9312 37.5336C71.9312 38.7629 71.8648 39.1948 71.5325 39.9091C71.0176 41.0388 70.2036 41.886 69.0905 42.484L68.1935 42.9492H62.4622H56.731L55.7841 42.484C54.1062 41.6534 53.0098 39.9922 52.8603 38.0652C52.7939 37.002 53.0431 35.5567 53.2922 35.5567C53.3587 35.5567 53.4251 35.4072 53.4417 35.2245C53.5082 34.3606 55.4518 32.8157 56.8805 32.4668C58.143 32.1678 66.7648 32.1678 67.8612 32.4502ZM83.8256 32.4668C85.1048 32.7326 86.6497 34.0616 87.3142 35.4737C87.796 36.487 87.8458 38.3144 87.4471 39.5271C87.0983 40.6401 85.9188 41.9192 84.7559 42.484C83.9419 42.8661 83.6097 42.9326 82.397 42.9326C81.1677 42.9326 80.8686 42.8661 80.1045 42.4508C78.925 41.8029 78.2771 41.1385 77.7621 40.042C77.3967 39.2613 77.3302 38.8958 77.3302 37.5502C77.3302 36.1215 77.3801 35.889 77.812 35.1082C79.0081 32.9486 81.284 31.9519 83.8256 32.4668ZM44.6206 33.015C46.3981 33.8789 47.3616 35.3906 47.4779 37.4837C47.5444 38.7297 47.5112 38.9124 47.0294 39.9258C46.4147 41.2049 45.4346 42.1352 44.2219 42.5671C43.5574 42.8163 42.7268 42.8495 38.3578 42.8661C35.4839 42.8661 32.8591 42.9492 32.2943 43.0489C30.6331 43.3479 29.4038 44.2782 28.5399 45.9062C28.1578 46.6039 28.1578 46.6703 28.1578 53.1657C28.1578 59.711 28.1578 59.7276 28.5399 60.4752C29.0881 61.5217 30.1347 62.5517 31.1314 63.0002C31.9454 63.3657 32.1614 63.3823 37.9591 63.4654L43.9395 63.5484L44.8366 64.0468C46.5975 65.0269 47.5112 66.6549 47.5112 68.8644C47.5112 71.0904 46.5144 72.8347 44.7203 73.7152L43.7734 74.1803H33.0585H22.3435L21.5295 73.7816C20.4165 73.2334 19.3865 72.1204 18.9546 71.0074C18.6058 70.0937 18.6058 69.994 18.6058 53.3983C18.6058 37.1183 18.6058 36.7196 18.938 35.8391C19.4032 34.5932 20.3002 33.6131 21.4963 33.0483L22.5097 32.5665H33.1083H43.7069L44.6206 33.015ZM68.7749 48.315C70.2866 49.0791 70.6189 49.3781 71.4329 50.757C71.7485 51.3052 71.8316 51.7205 71.898 52.9996C71.9645 54.5944 71.7983 55.2755 71.0674 56.3885C70.7351 56.8703 69.8713 57.6345 69.6553 57.6511C69.5391 57.6511 69.4394 57.7175 69.4394 57.8006C69.4394 57.8836 69.0739 58.083 68.6254 58.2325C67.9277 58.4651 67.0306 58.4983 62.0968 58.4485C55.6678 58.3986 55.8007 58.4152 54.4219 57.0696C52.9102 55.6078 52.4118 53.282 53.1759 51.2719C53.6743 49.9928 54.9202 48.7469 56.2326 48.2485C57.2127 47.8664 57.3456 47.8664 62.6283 47.8997C67.8778 47.9329 68.044 47.9495 68.7749 48.315ZM84.4237 48.3482C85.4702 48.7303 86.5999 49.6273 86.4836 49.943C86.4338 50.0759 86.4836 50.1589 86.5999 50.1257C86.7162 50.1091 86.982 50.4579 87.2145 50.9231L87.6298 51.7537L87.6797 60.9237C87.7129 69.8113 87.7129 70.1103 87.3807 70.9409C86.982 71.9376 86.251 72.9676 86.0351 72.8347C85.952 72.7849 85.9022 72.8347 85.9188 72.9344C85.952 73.0507 85.5367 73.3497 85.0217 73.6321C83.9253 74.2135 82.3804 74.4129 81.1344 74.1138C80.1377 73.8647 78.6758 73.0008 78.8419 72.735C78.9084 72.6354 78.8918 72.6021 78.7921 72.652C78.6924 72.7184 78.41 72.4692 78.1775 72.1204C77.2638 70.808 77.2472 70.6419 77.2472 61.04C77.2472 52.8003 77.2638 52.1192 77.5628 51.355C78.111 49.8931 79.2406 48.7635 80.6859 48.2485C81.6328 47.9163 83.3937 47.9661 84.4237 48.3482ZM69.0241 63.8973C70.1703 64.4455 71.2501 65.625 71.6654 66.7712C72.1306 68.0836 71.9811 70.5754 71.3664 71.6386C70.8016 72.6187 69.9544 73.3663 68.7749 73.9145L67.8612 74.3464H62.4622C57.246 74.3464 57.03 74.3298 56.1496 73.981C55.0199 73.5158 53.7906 72.3696 53.3088 71.3064C52.5945 69.7282 52.744 67.2364 53.6411 65.7911C54.2059 64.8774 55.3854 63.9305 56.3987 63.6149C56.5815 63.5484 59.2893 63.4986 62.4124 63.482L68.0938 63.4654L69.0241 63.8973Z" fill="#DBAB24"/>
</g>
<defs>
<clipPath id="clip0_304_15190">
<rect y="0.172852" width="106.319" height="106.319" rx="24.9782" fill="white"/>
</clipPath>
</defs>
</svg>
