<svg width="271" height="164" viewBox="0 0 271 164" fill="none" xmlns="http://www.w3.org/2000/svg">
<g clip-path="url(#clip0_304_15175)">
<path d="M113.667 20.4675V21.5058C113.667 32.5168 104.773 41.443 93.8014 41.443H57.6881C46.7164 41.443 37.8221 50.3692 37.8221 61.3804V101.428C37.8221 112.439 46.7164 121.366 57.6881 121.366H93.8014C104.773 121.366 113.667 130.292 113.667 141.303V143.927C113.667 154.938 104.773 163.864 93.8014 163.864H20.7137C9.74197 163.864 0.847656 154.938 0.847656 143.927V20.4675C0.847656 9.45647 9.74197 0.530273 20.7137 0.530273H93.8014C104.773 0.530273 113.667 9.45647 113.667 20.4675Z" fill="#DBAB24"/>
<path d="M134.209 143.926V141.302C134.209 130.291 143.103 121.365 154.075 121.365H188.924C199.895 121.365 208.79 130.291 208.79 141.302V143.926C208.79 154.937 199.895 163.864 188.924 163.864H154.075C143.103 163.864 134.209 154.937 134.209 143.926Z" fill="#DBAB24"/>
<path d="M134.209 21.5056V20.1501C134.209 9.13905 143.103 0.212891 154.075 0.212891H188.924C199.895 0.212891 208.79 9.13905 208.79 20.1501V21.5056C208.79 32.5166 199.895 41.4427 188.924 41.4427H154.075C143.103 41.4427 134.209 32.5166 134.209 21.5056Z" fill="#DBAB24"/>
<path d="M134.209 82.3988V81.0431C134.209 70.0326 143.103 61.1064 154.075 61.1064H188.924C199.895 61.1064 208.79 70.0326 208.79 81.0431V82.3988C208.79 93.4098 199.895 102.336 188.924 102.336H154.075C143.103 102.336 134.209 93.4098 134.209 82.3988Z" fill="#DBAB24"/>
<path d="M229.015 21.5056V20.1501C229.015 9.13905 237.909 0.212891 248.881 0.212891H250.232C261.203 0.212891 270.098 9.13905 270.098 20.1501V21.5056C270.098 32.5166 261.203 41.4427 250.232 41.4427H248.881C237.909 41.4427 229.015 32.5166 229.015 21.5056Z" fill="#DBAB24"/>
<path d="M250.232 163.864H248.881C237.909 163.864 229.015 154.938 229.015 143.927V81.0431C229.015 70.0326 237.909 61.1064 248.881 61.1064H250.232C261.203 61.1064 270.098 70.0326 270.098 81.0431V143.927C270.098 154.938 261.203 163.864 250.232 163.864Z" fill="#DBAB24"/>
</g>
<defs>
<clipPath id="clip0_304_15175">
<rect width="269.25" height="163.651" fill="white" transform="translate(0.847656 0.212891)"/>
</clipPath>
</defs>
</svg>
